<svg width="38" height="38" viewBox="0 0 38 38" fill="none" xmlns="http://www.w3.org/2000/svg">
<path d="M18.75 0C8.4 0 0 8.4 0 18.75C0 29.1 8.4 37.5 18.75 37.5C29.1 37.5 37.5 29.1 37.5 18.75C37.5 8.4 29.1 0 18.75 0ZM18.75 5.625C21.8625 5.625 24.375 8.1375 24.375 11.25C24.375 14.3625 21.8625 16.875 18.75 16.875C15.6375 16.875 13.125 14.3625 13.125 11.25C13.125 8.1375 15.6375 5.625 18.75 5.625ZM18.75 32.25C14.0625 32.25 9.91875 29.85 7.5 26.2125C7.55625 22.4812 15 20.4375 18.75 20.4375C22.4813 20.4375 29.9438 22.4812 30 26.2125C27.5812 29.85 23.4375 32.25 18.75 32.25Z" fill="#767676"/>
</svg>
